<svg width="29" height="29" viewBox="0 0 29 29" fill="none" xmlns="http://www.w3.org/2000/svg">
<mask id="mask0_29_257" style="mask-type:alpha" maskUnits="userSpaceOnUse" x="0" y="0" width="29" height="29">
<path d="M28.236 14.7182C28.236 7.13176 22.0789 0.974609 14.4924 0.974609C6.90588 0.974609 0.748734 7.13176 0.748734 14.7182C0.748734 21.3702 5.47654 26.9089 11.7436 28.187V18.8413H8.99492V14.7182H11.7436V11.2823C11.7436 8.62982 13.9014 6.47206 16.5539 6.47206H19.9898V10.5952H17.2411C16.4852 10.5952 15.8667 11.2136 15.8667 11.9695V14.7182H19.9898V18.8413H15.8667V28.3932C22.8073 27.706 28.236 21.8512 28.236 14.7182Z" fill="black"/>
</mask>
<g mask="url(#mask0_29_257)">
<rect x="-157.99" y="-47.4717" width="222.647" height="98.6106" fill="white"/>
</g>
</svg>
