<svg width="139" height="85" viewBox="0 0 139 85" fill="none" xmlns="http://www.w3.org/2000/svg">
<rect x="90" width="38" height="85" rx="8" fill="#40A578"/>
<path d="M16.608 30.536V34.92H7.456V39.656H14.304V43.912H7.456V53H1.984V30.536H16.608ZM22.236 33.288C21.276 33.288 20.4867 33.0107 19.868 32.456C19.2707 31.88 18.972 31.176 18.972 30.344C18.972 29.4907 19.2707 28.7867 19.868 28.232C20.4867 27.656 21.276 27.368 22.236 27.368C23.1747 27.368 23.9427 27.656 24.54 28.232C25.1587 28.7867 25.468 29.4907 25.468 30.344C25.468 31.176 25.1587 31.88 24.54 32.456C23.9427 33.0107 23.1747 33.288 22.236 33.288ZM24.956 35.144V53H19.484V35.144H24.956ZM38.8735 48.36V53H36.0895C34.1055 53 32.5588 52.52 31.4495 51.56C30.3402 50.5787 29.7855 48.9893 29.7855 46.792V39.688H27.6095V35.144H29.7855V30.792H35.2575V35.144H38.8415V39.688H35.2575V46.856C35.2575 47.3893 35.3855 47.7733 35.6415 48.008C35.8975 48.2427 36.3242 48.36 36.9215 48.36H38.8735Z" fill="#40A578"/>
<path d="M50.0495 53.224C48.4068 53.224 46.9348 52.9573 45.6335 52.424C44.3322 51.8907 43.2868 51.1013 42.4975 50.056C41.7295 49.0107 41.3242 47.752 41.2815 46.28H47.1055C47.1908 47.112 47.4788 47.752 47.9695 48.2C48.4602 48.6267 49.1002 48.84 49.8895 48.84C50.7002 48.84 51.3402 48.6587 51.8095 48.296C52.2788 47.912 52.5135 47.3893 52.5135 46.728C52.5135 46.1733 52.3215 45.7147 51.9375 45.352C51.5748 44.9893 51.1162 44.6907 50.5615 44.456C50.0282 44.2213 49.2602 43.9547 48.2575 43.656C46.8068 43.208 45.6228 42.76 44.7055 42.312C43.7882 41.864 42.9988 41.2027 42.3375 40.328C41.6762 39.4533 41.3455 38.312 41.3455 36.904C41.3455 34.8133 42.1028 33.1813 43.6175 32.008C45.1322 30.8133 47.1055 30.216 49.5375 30.216C52.0122 30.216 54.0068 30.8133 55.5215 32.008C57.0362 33.1813 57.8468 34.824 57.9535 36.936H52.0335C51.9908 36.2107 51.7242 35.6453 51.2335 35.24C50.7428 34.8133 50.1135 34.6 49.3455 34.6C48.6842 34.6 48.1508 34.7813 47.7455 35.144C47.3402 35.4853 47.1375 35.9867 47.1375 36.648C47.1375 37.3733 47.4788 37.9387 48.1615 38.344C48.8442 38.7493 49.9108 39.1867 51.3615 39.656C52.8122 40.1467 53.9855 40.616 54.8815 41.064C55.7988 41.512 56.5882 42.1627 57.2495 43.016C57.9108 43.8693 58.2415 44.968 58.2415 46.312C58.2415 47.592 57.9108 48.7547 57.2495 49.8C56.6095 50.8453 55.6708 51.6773 54.4335 52.296C53.1962 52.9147 51.7348 53.224 50.0495 53.224ZM69.737 53.256C67.9877 53.256 66.409 52.8827 65.001 52.136C63.6143 51.3893 62.5157 50.3227 61.705 48.936C60.9157 47.5493 60.521 45.928 60.521 44.072C60.521 42.2373 60.9263 40.6267 61.737 39.24C62.5477 37.832 63.657 36.7547 65.065 36.008C66.473 35.2613 68.0517 34.888 69.801 34.888C71.5503 34.888 73.129 35.2613 74.537 36.008C75.945 36.7547 77.0543 37.832 77.865 39.24C78.6757 40.6267 79.081 42.2373 79.081 44.072C79.081 45.9067 78.665 47.528 77.833 48.936C77.0223 50.3227 75.9023 51.3893 74.473 52.136C73.065 52.8827 71.4863 53.256 69.737 53.256ZM69.737 48.52C70.7823 48.52 71.6677 48.136 72.393 47.368C73.1397 46.6 73.513 45.5013 73.513 44.072C73.513 42.6427 73.1503 41.544 72.425 40.776C71.721 40.008 70.8463 39.624 69.801 39.624C68.7343 39.624 67.849 40.008 67.145 40.776C66.441 41.5227 66.089 42.6213 66.089 44.072C66.089 45.5013 66.4303 46.6 67.113 47.368C67.817 48.136 68.6917 48.52 69.737 48.52ZM87.456 29.32V53H81.984V29.32H87.456ZM133.58 33.288C132.62 33.288 131.83 33.0107 131.212 32.456C130.614 31.88 130.316 31.176 130.316 30.344C130.316 29.4907 130.614 28.7867 131.212 28.232C131.83 27.656 132.62 27.368 133.58 27.368C134.518 27.368 135.286 27.656 135.884 28.232C136.502 28.7867 136.812 29.4907 136.812 30.344C136.812 31.176 136.502 31.88 135.884 32.456C135.286 33.0107 134.518 33.288 133.58 33.288ZM136.3 35.144V53H130.828V35.144H136.3Z" fill="#006769"/>
<path d="M109.054 35.144V53H103.582V50.568C103.027 51.3573 102.27 51.9973 101.31 52.488C100.371 52.9573 99.3255 53.192 98.1735 53.192C96.8082 53.192 95.6028 52.8933 94.5575 52.296C93.5122 51.6773 92.7015 50.792 92.1255 49.64C91.5495 48.488 91.2615 47.1333 91.2615 45.576V35.144H96.7015V44.84C96.7015 46.0347 97.0108 46.9627 97.6295 47.624C98.2482 48.2853 99.0802 48.616 100.126 48.616C101.192 48.616 102.035 48.2853 102.654 47.624C103.272 46.9627 103.582 46.0347 103.582 44.84V35.144H109.054ZM120.248 53.256C118.691 53.256 117.304 52.9893 116.088 52.456C114.872 51.9227 113.912 51.1973 113.208 50.28C112.504 49.3413 112.109 48.296 112.024 47.144H117.432C117.496 47.7627 117.784 48.264 118.296 48.648C118.808 49.032 119.437 49.224 120.184 49.224C120.867 49.224 121.389 49.096 121.752 48.84C122.136 48.5627 122.328 48.2107 122.328 47.784C122.328 47.272 122.061 46.8987 121.528 46.664C120.995 46.408 120.131 46.1307 118.936 45.832C117.656 45.5333 116.589 45.224 115.736 44.904C114.883 44.5627 114.147 44.04 113.528 43.336C112.909 42.6107 112.6 41.64 112.6 40.424C112.6 39.4 112.877 38.472 113.432 37.64C114.008 36.7867 114.84 36.1147 115.928 35.624C117.037 35.1333 118.349 34.888 119.864 34.888C122.104 34.888 123.864 35.4427 125.144 36.552C126.445 37.6613 127.192 39.1333 127.384 40.968H122.328C122.243 40.3493 121.965 39.8587 121.496 39.496C121.048 39.1333 120.451 38.952 119.704 38.952C119.064 38.952 118.573 39.08 118.232 39.336C117.891 39.5707 117.72 39.9013 117.72 40.328C117.72 40.84 117.987 41.224 118.52 41.48C119.075 41.736 119.928 41.992 121.08 42.248C122.403 42.5893 123.48 42.9307 124.312 43.272C125.144 43.592 125.869 44.1253 126.488 44.872C127.128 45.5973 127.459 46.5787 127.48 47.816C127.48 48.8613 127.181 49.8 126.584 50.632C126.008 51.4427 125.165 52.0827 124.056 52.552C122.968 53.0213 121.699 53.256 120.248 53.256Z" fill="white"/>
</svg>
